<?xml version="1.0" standalone="no"?> <!DOCTYPE svg PUBLIC "-//W3C//DTD SVG 1.0//EN" "http://www.w3.org/TR/2001/REC-SVG-20010904/DTD/svg10.dtd" > <svg xmlns="http://www.w3.org/2000/svg" width="100%" height="100%">
<defs >
<font horiz-adv-x="555" ><font-face
    font-family="Mr. Mogollon"
    units-per-em="2048"
    panose-1="2 0 5 0 0 0 0 0 0 0"
    ascent="1716"
    descent="-418"
    alphabetic="0" />
<missing-glyph horiz-adv-x="1024" d="M100 0V1434H924V0H100ZM150 50H874V1384H150V50ZM325 1148Q356 1176 383 1191Q436 1221 495 1221Q587 1221 643 1174T699 1046Q699 997 676 948T589 818Q526 738 490 686T454 587Q454 549 478 454H446Q411 551 411 602Q411
678 492 820T574 1037Q574 1094 541 1127T450 1160Q412 1160 381 1143Q355 1128 325 1103V1148ZM389 334L446 392Q457 402 466 402Q476 402 488 391L544 331Q553 320 553 311Q553 300 543 289L487 227Q473 213 466 213Q455 213 446 223L385 294Q378 303 378 312Q378
322 389 334Z" />
<glyph unicode=" " glyph-name="space" horiz-adv-x="508" />
<glyph unicode="!" glyph-name="exclam" horiz-adv-x="488" d="M246 1445L270 1442Q316 1438 268 618L288 306L263 296L239 298Q168 305 222 1435L246 1445ZM296 138Q307 120 308 5L284 -5L213 2Q194 3 169 53L172 77Q241 138 296 138Z" />
<glyph unicode="&quot;" glyph-name="quotedbl" horiz-adv-x="622" d="M181 1789Q222 1795 229 1782Q254 1499 220 1456L202 1468Q149 1565 181 1789ZM381 1789Q422 1795 429 1782Q454 1499 420 1456L402 1468Q349 1565 381 1789Z" />
<glyph unicode="#" glyph-name="numbersign" horiz-adv-x="1127" d="M621 1683Q685 1659 685 1635Q637 1465 589 1077Q781 1077 781 1205Q837 1651 876 1651H908Q940 1646 940 1619Q860 1200 860 1141H1004Q1036 1136 1036 1109V1093Q1036 1054 844 1029Q813 759
813 710H972V694Q972 667 781 567Q768 200 685 200L669 232Q669 375 701 583H526Q500 280 462 280H430L398 296L414 455V551H398Q333 551 111 535L95 567Q95 611 446 662Q478 930 478 965Q217 934 143 934L111 997Q139 1029 494 1061Q589 1683 621 1683ZM541 662H557Q733
662 733 790L765 1013Q573 1013 573 934Q557 923 541 662Z" />
<glyph unicode="$" glyph-name="dollar" horiz-adv-x="630" d="M262 1553H283Q304 1550 304 1532V1427Q304 1350 399 1280V1270H315Q325 933 325 829Q325 779 483 588Q514 536 514 451Q514 324 367 178Q346 122 336 0H325Q301 0 273 168Q126 224 126 304H147Q247
231 294 231V262Q294 419 283 693Q84 915 84 1081V1102Q84 1305 199 1354Q252 1354 252 1396Q252 1411 241 1543L262 1553ZM147 1091Q147 928 262 829L273 881V934Q273 1056 262 1322H252Q147 1294 147 1091ZM346 651V567Q346 462 357 252Q439 334 451 420V462Q451
563 346 651Z" />
<glyph unicode="%" glyph-name="percent" horiz-adv-x="1313" d="M1228 1402H1245V1302Q875 915 160 50Q95 0 60 0V17Q60 140 1178 1369L1228 1402ZM344 1252H360Q527 1219 527 1085Q490 835 327 835H310Q173 835 127 1035Q187 1252 344 1252ZM210 985Q305 918
344 918Q444 952 444 1052V1068Q444 1128 377 1202Q296 1202 210 985ZM978 634Q1162 597 1162 367Q1115 167 961 167H911Q755 167 728 367Q769 634 978 634ZM811 317Q918 250 961 250Q1061 276 1061 367L1045 534H961Q811 519 811 317Z" />
<glyph unicode="&amp;" glyph-name="ampersand" horiz-adv-x="1683" />
<glyph unicode="&apos;" glyph-name="quotesingle" horiz-adv-x="297" d="M136 1708Q177 1714 184 1701Q209 1418 175 1375L157 1387Q104 1484 136 1708Z" />
<glyph unicode="(" glyph-name="parenleft" horiz-adv-x="504" d="M300 1687Q147 1322 147 1074V1023Q147 404 415 -63L377 -89H364Q195 70 108 627Q70 745 70 997V1074Q123 1687 300 1687Z" />
<glyph unicode=")" glyph-name="parenright" horiz-adv-x="519" d="M127 1705Q248 1705 374 884V766Q323 -67 210 -67H198Q198 -55 186 -55Q303 529 303 708V766Q303 1100 104 1693L127 1705Z" />
<glyph unicode="*" glyph-name="asterisk" horiz-adv-x="705" d="M283 1533Q257 1697 257 1723L303 1757Q323 1728 353 1547L450 1683L490 1675Q457 1574 420 1517L575 1541L598 1507Q491 1454 419 1442L524 1338L508 1322Q482 1296 382 1373V1246H359Q326 1246
310 1356L275 1313L227 1264L211 1280Q190 1301 270 1413L189 1405H121V1428Q121 1457 241 1477Q115 1567 97 1585L105 1641Q140 1636 283 1533Z" />
<glyph unicode="+" glyph-name="plus" horiz-adv-x="868" d="M398 1208Q424 1161 435 853L738 864L764 813Q564 742 454 755L422 489L391 493Q333 500 341 737L182 741L88 752L92 784Q98 831 337 833Q325 1127 330 1169L398 1208Z" />
<glyph unicode="," glyph-name="comma" horiz-adv-x="297" d="M193 90Q237 73 237 56Q106 -241 48 -266L37 -244Q37 -118 193 90Z" />
<glyph unicode="-" glyph-name="hyphen" horiz-adv-x="571" d="M318 473H460L482 462Q461 412 438 407H340Q121 407 55 385L44 407V429Q44 473 318 473Z" />
<glyph unicode="." glyph-name="period" horiz-adv-x="289" d="M180 126Q190 112 200 17L180 7H121Q105 7 81 47V67Q134 122 180 126Z" />
<glyph unicode="/" glyph-name="slash" horiz-adv-x="630" d="M554 1224Q567 1226 585 1201L586 1192Q237 460 99 31L44 -32L32 -16Q192 500 479 1103Q498 1168 554 1224Z" />
<glyph unicode="0" glyph-name="zero" horiz-adv-x="719" d="M306 1468Q503 1390 555 1257Q629 1082 629 622Q629 130 480 25Q461 25 430 0H381Q138 0 94 585Q94 719 82 809Q82 1375 306 1468ZM306 1418Q157 1297 157 821V809Q157 62 418 62Q555 143 555 647V659Q555
1340 306 1418Z" />
<glyph unicode="1" glyph-name="one" horiz-adv-x="534" d="M433 1453Q457 1448 456 1427L448 1270Q447 318 431 -3L418 -2Q346 1 355 171L356 195Q388 817 364 1287Q295 1247 112 1118Q65 1138 66 1156Q291 1348 433 1453Z" />
<glyph unicode="2" glyph-name="two" horiz-adv-x="660" d="M376 1439H400Q552 1439 578 1177V1165Q578 912 198 202Q162 116 162 107H174L495 143Q519 104 519 83Q462 59 79 0L67 24Q86 158 424 809Q507 1052 507 1142V1177Q507 1368 388 1368H376Q257 1368 115
1165H103Q86 1165 67 1201Q193 1439 376 1439Z" />
<glyph unicode="3" glyph-name="three" horiz-adv-x="660" d="M249 1468H336Q511 1468 511 1231V1181Q511 1071 449 944Q598 777 598 581Q543 7 311 7H261Q121 7 86 144Q99 144 99 157Q216 82 286 82H311Q511 210 511 506V631Q511 754 411 856H286Q261 856 261
881Q449 1032 449 1156V1193Q449 1393 311 1393H299Q250 1393 74 1356V1381Q74 1435 249 1468Z" />
<glyph unicode="4" glyph-name="four" horiz-adv-x="489" d="M171 1467Q204 1423 201 1384Q196 1289 151 736L136 679Q148 678 147 667Q300 681 334 679Q345 1263 342 1399Q353 1398 354 1410Q423 1405 412 1220L386 2L362 -8Q305 10 307 30Q313 333 323 505L329
598Q192 595 131 598L97 600Q73 602 66 672Q139 1311 148 1457L171 1467Z" />
<glyph unicode="5" glyph-name="five" horiz-adv-x="638" d="M470 1398L480 1374L478 1350Q477 1333 440 1317Q180 1330 179 1313Q168 1168 219 906Q536 883 544 478L536 384Q447 -13 188 6Q72 48 75 86L76 98Q88 168 116 166Q159 95 157 80L193 77Q400 62 466
389L474 496Q459 805 272 819Q157 804 141 805Q123 891 89 1379Q175 1405 470 1398Z" />
<glyph unicode="6" glyph-name="six" horiz-adv-x="564" d="M283 1461L295 1437Q162 888 162 676V531Q162 184 271 72Q359 72 380 217Q380 318 392 326Q392 529 175 712V724Q431 724 464 338V314Q464 95 356 24Q332 24 271 0Q113 0 90 459V616Q166 1449 259 1449L283
1461Z" />
<glyph unicode="7" glyph-name="seven" horiz-adv-x="593" d="M521 1446L532 1422Q450 1087 450 988Q450 952 474 893Q344 449 344 106Q344 0 297 0L250 24Q309 527 356 811H262Q239 811 239 835Q368 916 368 976L427 1364Q380 1364 380 1375L262 1364H109Q82
1364 74 1422L98 1434H286Q362 1434 521 1446Z" />
<glyph unicode="8" glyph-name="eight" horiz-adv-x="534" d="M181 1454Q403 1385 403 1219Q403 1194 415 1091Q403 919 356 797Q462 702 462 551V528Q462 0 274 0Q75 85 75 375Q75 491 145 774Q75 952 75 997V1137Q75 1352 181 1454ZM204 1395Q145 1253 145 1126V1067Q145
833 263 833H274Q336 833 345 1091V1126Q345 1336 204 1395ZM227 774Q145 545 145 410Q145 140 321 70Q392 247 392 469Q392 700 263 774H227Z" />
<glyph unicode="9" glyph-name="nine" horiz-adv-x="534" d="M285 1446Q420 1446 420 1367L432 1288Q420 1036 420 881Q420 780 454 136Q454 0 364 0Q364 39 375 237L341 904Q240 813 228 813H160Q70 870 70 983Q70 1274 285 1446ZM285 1390Q149 1193 149 1005V915Q149
892 228 870Q352 1043 352 1220Q341 1368 285 1390Z" />
<glyph unicode=":" glyph-name="colon" horiz-adv-x="304" d="M180 126Q190 112 200 17L180 7H121Q105 7 81 47V67Q134 122 180 126ZM180 890Q190 876 200 781L180 771H121Q105 771 81 811V831Q134 886 180 890Z" />
<glyph unicode=";" glyph-name="semicolon" horiz-adv-x="311" d="M180 860Q190 846 200 751L180 741H121Q105 741 81 781V801Q134 856 180 860ZM193 90Q237 73 237 56Q106 -241 48 -266L37 -244Q37 -118 193 90Z" />
<glyph unicode="&lt;" glyph-name="less" horiz-adv-x="541" d="M178 1355Q298 1322 470 1174Q450 1119 429 1119H401Q212 1225 150 1341L178 1355ZM81 826Q342 813 401 799V757Q401 729 373 729H262Q67 729 67 813Q81 813 81 826ZM429 465V451Q406 349 206 131Q186
131 164 173V201Q354 465 429 465Z" />
<glyph unicode="=" glyph-name="equal" horiz-adv-x="808" d="M705 1007Q705 993 720 993Q720 892 462 892Q303 878 103 849L89 878V907Q89 953 705 1007ZM505 649H691L720 634Q692 569 662 563H533Q247 563 161 534L146 563V591Q146 649 505 649Z" />
<glyph unicode="&gt;" glyph-name="greater" horiz-adv-x="534" d="M396 1319Q332 1203 138 1097H110Q88 1097 67 1152Q244 1300 367 1333L396 1319ZM467 781T481 781Q481 697 281 697H167Q138 697 138 725V767Q199 781 467 794Q467 781 481 781ZM187 443T381
179V151Q359 109 339 109Q133 327 110 429V443Q187 443 381 179Z" />
<glyph unicode="?" glyph-name="question" horiz-adv-x="719" d="M326 1431H365Q531 1431 626 1144V1078Q626 919 431 647Q385 321 339 321Q300 321 300 451Q300 628 522 961L548 1104Q548 1245 352 1353H326Q199 1353 169 1104H130Q104 1104 104 1131Q104 1431
326 1431ZM391 86H404Q431 82 431 59V-6Q431 -25 391 -45H352Q334 -45 274 33V59Q359 86 391 86Z" />
<glyph unicode="@" glyph-name="at" horiz-adv-x="1483" d="M844 1535H872Q1243 1535 1375 1074Q1389 978 1389 920V878Q1389 496 1053 277Q1029 263 997 263H955Q896 263 774 389H760Q669 319 620 319H564Q466 376 466 487V501Q554 906 704 906Q858 906 858 613Q858
347 969 347Q1271 448 1305 920Q1305 1289 983 1437Q929 1451 872 1451H816Q486 1451 201 738Q187 643 187 585V501Q187 145 466 -2Q642 -72 788 -72Q850 -72 1081 40L1095 12Q966 -156 788 -156Q312 -156 159 207Q89 377 89 529Q89 1064 620 1479Q736 1535 844
1535ZM564 557V389H578Q746 446 746 585V599Q746 672 732 836Q564 713 564 557Z" />
<glyph unicode="A" glyph-name="A" horiz-adv-x="608" d="M244 1431H267Q290 1431 335 1068Q517 129 517 11L494 0Q426 0 381 477Q369 534 358 534Q176 511 176 477Q162 0 119 0H74Q181 1431 244 1431ZM244 1158Q222 1039 188 579H358L256 1158H244Z" />
<glyph unicode="B" glyph-name="B" horiz-adv-x="571" d="M108 1417Q419 1328 410 1135L406 1042Q401 952 252 735H263Q501 592 491 364L490 352Q477 56 184 5L149 7L150 30Q388 141 392 240Q418 292 421 355Q431 583 168 692V681Q179 660 177 634Q171 487 189
133L175 64H163Q98 67 95 870Q76 871 82 1348Q83 1368 108 1417ZM151 1322L150 1310Q143 1155 161 786L184 785Q342 922 350 1103Q310 1314 162 1321L151 1322Z" />
<glyph unicode="C" glyph-name="C" horiz-adv-x="556" d="M287 1432H299Q385 1428 459 1342Q439 1296 422 1297Q423 1320 308 1372Q160 1219 147 934L143 852Q139 146 296 81L378 78Q471 189 489 190L500 189V178Q470 -9 327 -2L304 -1Q89 9 67 726L75 902Q94
1311 287 1432Z" />
<glyph unicode="D" glyph-name="D" horiz-adv-x="586" d="M92 1419Q428 1404 498 812L504 668Q490 331 237 42Q163 -3 127 -1Q71 101 74 181Q106 1406 67 1408L92 1419ZM160 1344Q170 1000 155 94L167 93Q404 290 420 659L424 767Q440 1127 172 1343L160 1344Z" />
<glyph unicode="E" glyph-name="E" horiz-adv-x="616" d="M87 1428L478 1409Q502 1404 501 1383Q417 1326 156 1339V1327L167 1302Q160 913 152 752Q152 654 172 653Q237 650 393 667L404 642Q401 599 143 557Q172 153 169 103Q353 106 438 102L487 100Q511 95
510 74L509 50Q508 26 471 27Q307 35 128 7Q76 10 87 1428Z" />
<glyph unicode="F" glyph-name="F" horiz-adv-x="534" d="M372 1412L429 1409L485 1394L484 1372Q471 1338 414 1341L357 1344Q298 1348 164 1343V1332Q161 1281 149 1265Q156 765 179 764Q328 801 362 799L385 798L383 764Q382 751 174 684Q174 673 162 674L168
560L164 492Q156 348 158 163Q136 26 126 6Q82 25 83 42L98 325Q109 526 96 1336Q100 1415 179 1411Q252 1418 372 1412Z" />
<glyph unicode="G" glyph-name="G" horiz-adv-x="630" d="M347 1424H372Q490 1424 508 1226L483 1213Q413 1325 372 1350H359Q136 1350 136 607Q136 331 334 99L421 87H446Q483 231 483 334Q483 417 458 557H347L223 545L211 570Q254 632 347 632H495Q557 616
557 297Q557 0 396 0H384Q180 0 74 483Q62 550 62 619Q62 1265 260 1399L347 1424Z" />
<glyph unicode="H" glyph-name="H" horiz-adv-x="564" d="M419 1417Q491 1344 447 79Q458 78 456 56L433 46Q354 51 380 457L386 547L378 604Q163 607 162 584Q155 478 184 51L125 9Q58 337 124 1402L147 1412L170 1411Q192 1406 191 1386Q177 996 163 777L160
732L168 675L190 673Q292 667 384 683L388 751Q403 978 383 1374Q403 1418 419 1417Z" />
<glyph unicode="I" glyph-name="I" horiz-adv-x="319" d="M118 1389Q194 1386 185 1109Q164 466 200 25L161 1H149Q76 4 104 1339Q92 1363 93 1377L118 1389Z" />
<glyph unicode="J" glyph-name="J" horiz-adv-x="430" d="M284 1371Q356 1364 328 1050Q367 391 349 183Q290 -7 222 -1L126 8Q29 16 41 149L42 161L54 160Q143 67 228 59L280 238Q261 839 259 1361L284 1371Z" />
<glyph unicode="K" glyph-name="K" horiz-adv-x="541" d="M445 1407L468 1405L467 1393Q460 1328 157 666Q154 632 431 41L427 6Q425 -17 402 -15Q313 77 149 479L138 481L126 37Q86 18 66 20Q43 23 83 1071Q69 1073 63 1330Q82 1399 105 1396Q146 1392 155 865L166
864Q371 1359 445 1407Z" />
<glyph unicode="L" glyph-name="L" horiz-adv-x="475" d="M126 1404Q160 1402 157 1356Q116 694 157 74Q351 96 421 92L431 68Q426 -12 95 9Q50 561 90 1189L102 1383Q107 1405 126 1404Z" />
<glyph unicode="M" glyph-name="M" horiz-adv-x="693" d="M430 1468Q498 1328 623 11L600 0H577Q548 0 509 523L418 1218H407Q373 751 327 751H316Q286 751 179 1127H168Q111 180 111 46H77Q54 119 54 148V182L100 1127V1411H122Q166 1402 304 945H316Q363 1468
430 1468Z" />
<glyph unicode="N" glyph-name="N" horiz-adv-x="593" d="M135 1387Q158 1359 383 406Q402 406 418 300H430V324Q395 810 395 1139V1281Q395 1371 442 1387Q463 1387 477 737L536 40L513 28H465Q350 155 158 1021H147V855Q147 342 206 5L182 -7H147Q78 -7 52 1304V1352Q52
1379 135 1387Z" />
<glyph unicode="O" glyph-name="O" horiz-adv-x="608" d="M254 1402Q436 1402 487 1087Q522 819 522 561V432Q522 0 370 0H347Q166 0 102 280Q90 357 90 432V526Q90 1402 230 1402H254ZM242 1355Q187 1355 148 467Q192 58 347 58Q452 58 452 421V666Q452 1242
277 1344Q265 1344 242 1355Z" />
<glyph unicode="P" glyph-name="P" horiz-adv-x="571" d="M94 1409Q473 1335 473 1030Q484 1015 484 947Q484 673 165 426V237Q165 160 177 0H117Q94 0 94 24V118Q94 502 106 1006L70 1397L94 1409ZM153 1314V1302Q177 1055 177 900V781Q177 699 165 521Q402 682
402 888V995Q370 1314 153 1314Z" />
<glyph unicode="Q" glyph-name="Q" horiz-adv-x="719" d="M291 1386H314Q528 1386 563 876Q574 777 574 763Q563 409 529 197Q571 116 687 -7Q676 -27 676 -52H653Q642 -52 506 95Q416 5 370 5Q76 113 76 888Q118 1386 291 1386ZM133 865Q133 436 280 152Q376
61 393 61L450 174Q431 174 359 322Q370 322 370 333Q382 333 484 265L518 741Q518 1269 302 1329Q179 1329 144 944Q144 880 133 865Z" />
<glyph unicode="R" glyph-name="R" horiz-adv-x="512" d="M296 1392Q441 1382 470 1154Q462 1041 252 775L251 764Q406 571 391 360Q399 356 434 19L376 -11Q359 31 311 501Q281 636 168 714L146 715L145 704L141 17L118 7L96 9Q73 11 75 33Q89 869 57 1364Q74
1388 296 1392ZM121 1315Q145 856 139 772Q391 988 401 1137L405 1182Q401 1328 269 1338Q242 1340 121 1315Z" />
<glyph unicode="S" glyph-name="S" horiz-adv-x="556" d="M240 1417Q320 1417 406 1303V1290Q263 1341 228 1341Q113 1261 113 1086Q113 943 418 603Q466 603 507 336V311Q470 -7 279 -7H253Q113 -7 113 184H126Q215 57 266 57Q410 57 431 311V324Q431 532 101
870Q37 1023 37 1099Q92 1417 240 1417Z" />
<glyph unicode="T" glyph-name="T" horiz-adv-x="623" d="M583 1392V1368Q582 1349 533 1322L332 1329L331 1317Q321 1018 344 9L320 -2L297 -1Q247 1 248 1308L46 1316Q22 1316 23 1340L24 1364Q25 1388 60 1386Q483 1395 583 1392Z" />
<glyph unicode="U" glyph-name="U" horiz-adv-x="534" d="M424 1417H436Q488 1241 440 237Q452 236 449 187Q437 -11 277 -2L252 0Q54 12 78 408Q83 1115 92 1263L98 1375Q104 1399 125 1398L149 1397L173 1383L157 1309Q126 94 208 89L269 73L306 71Q352 92 372
142Q378 238 384 1370Q405 1418 424 1417Z" />
<glyph unicode="V" glyph-name="V" horiz-adv-x="549" d="M518 1394Q530 1371 530 1358Q435 721 352 12L328 0H304Q266 0 185 477Q30 1270 30 1370H54Q109 1370 304 238H316Q316 479 471 1370L518 1394Z" />
<glyph unicode="W" glyph-name="W" horiz-adv-x="719" d="M52 1406L64 1405Q82 1402 127 1057Q177 894 225 336H238Q326 731 328 760L352 758Q407 755 508 330L520 329Q524 574 533 697L541 819Q579 1370 628 1367Q645 1366 662 1328Q610 750 602 631Q596 536
608 175Q590 53 563 55L551 56Q501 63 373 523L361 524Q301 302 253 27L215 5L203 6L55 1086Q19 1102 24 1359L26 1383Q31 1408 52 1406Z" />
<glyph unicode="X" glyph-name="X" horiz-adv-x="612" d="M479 1391L512 1388L533 1376Q380 930 344 742Q513 290 569 55L546 46L525 48Q478 118 313 612L302 613Q142 66 116 11L83 14L62 26L255 726L29 1390L52 1400L63 1399Q108 1396 287 866Q321 864 457 1381L479
1391Z" />
<glyph unicode="Y" glyph-name="Y" horiz-adv-x="578" d="M538 1461L551 1436Q398 1062 398 661Q398 512 373 330Q386 220 386 140V0H348Q297 0 297 216Q322 706 322 813V851Q322 906 55 1296L30 1347L55 1359Q132 1359 335 1016H348Q419 1374 538 1461Z" />
<glyph unicode="Z" glyph-name="Z" horiz-adv-x="608" d="M501 1417Q552 1398 552 1378Q333 661 140 90H153Q265 90 475 116L488 90V64Q488 9 76 0Q50 0 50 39Q50 76 359 992Q449 1302 449 1327H192L102 1314L89 1340V1365Q89 1417 501 1417Z" />
<glyph unicode="[" glyph-name="bracketleft" horiz-adv-x="541" d="M178 1355Q298 1322 470 1174Q450 1119 429 1119H401Q212 1225 150 1341L178 1355ZM81 826Q342 813 401 799V757Q401 729 373 729H262Q67 729 67 813Q81 813 81 826ZM429 465V451Q406 349 206
131Q186 131 164 173V201Q354 465 429 465Z" />
<glyph unicode="\" glyph-name="backslash" horiz-adv-x="569" />
<glyph unicode="]" glyph-name="bracketright" horiz-adv-x="534" d="M396 1319Q332 1203 138 1097H110Q88 1097 67 1152Q244 1300 367 1333L396 1319ZM467 781T481 781Q481 697 281 697H167Q138 697 138 725V767Q199 781 467 794Q467 781 481 781ZM187 443T381
179V151Q359 109 339 109Q133 327 110 429V443Q187 443 381 179Z" />
<glyph unicode="^" glyph-name="asciicircum" horiz-adv-x="1014" />
<glyph unicode="_" glyph-name="underscore" horiz-adv-x="883" d="M753 7L764 -14V-46Q764 -89 465 -89Q399 -89 113 -78Q92 -44 92 -25Q103 -25 103 -14L231 -25H497Q630 -25 753 7Z" />
<glyph unicode="`" glyph-name="grave" horiz-adv-x="1024" d="M673 1079H604L274 1281Q243 1301 228 1321T212 1363Q212 1394 232 1414T286 1434Q306 1434 326 1422T382 1375L673 1079Z" />
<glyph unicode="a" glyph-name="a" horiz-adv-x="608" d="M244 1431H267Q290 1431 335 1068Q517 129 517 11L494 0Q426 0 381 477Q369 534 358 534Q176 511 176 477Q162 0 119 0H74Q181 1431 244 1431ZM244 1158Q222 1039 188 579H358L256 1158H244Z" />
<glyph unicode="b" glyph-name="b" horiz-adv-x="571" d="M108 1417Q419 1328 410 1135L406 1042Q401 952 252 735H263Q501 592 491 364L490 352Q477 56 184 5L149 7L150 30Q388 141 392 240Q418 292 421 355Q431 583 168 692V681Q179 660 177 634Q171 487 189
133L175 64H163Q98 67 95 870Q76 871 82 1348Q83 1368 108 1417ZM151 1322L150 1310Q143 1155 161 786L184 785Q342 922 350 1103Q310 1314 162 1321L151 1322Z" />
<glyph unicode="c" glyph-name="c" horiz-adv-x="556" d="M287 1432H299Q385 1428 459 1342Q439 1296 422 1297Q423 1320 308 1372Q160 1219 147 934L143 852Q139 146 296 81L378 78Q471 189 489 190L500 189V178Q470 -9 327 -2L304 -1Q89 9 67 726L75 902Q94
1311 287 1432Z" />
<glyph unicode="d" glyph-name="d" horiz-adv-x="586" d="M92 1419Q428 1404 498 812L504 668Q490 331 237 42Q163 -3 127 -1Q71 101 74 181Q106 1406 67 1408L92 1419ZM160 1344Q170 1000 155 94L167 93Q404 290 420 659L424 767Q440 1127 172 1343L160 1344Z" />
<glyph unicode="e" glyph-name="e" horiz-adv-x="616" d="M87 1428L478 1409Q502 1404 501 1383Q417 1326 156 1339V1327L167 1302Q160 913 152 752Q152 654 172 653Q237 650 393 667L404 642Q401 599 143 557Q172 153 169 103Q353 106 438 102L487 100Q511 95
510 74L509 50Q508 26 471 27Q307 35 128 7Q76 10 87 1428Z" />
<glyph unicode="f" glyph-name="f" horiz-adv-x="534" d="M372 1412L429 1409L485 1394L484 1372Q471 1338 414 1341L357 1344Q298 1348 164 1343V1332Q161 1281 149 1265Q156 765 179 764Q328 801 362 799L385 798L383 764Q382 751 174 684Q174 673 162 674L168
560L164 492Q156 348 158 163Q136 26 126 6Q82 25 83 42L98 325Q109 526 96 1336Q100 1415 179 1411Q252 1418 372 1412Z" />
<glyph unicode="g" glyph-name="g" horiz-adv-x="630" d="M347 1424H372Q490 1424 508 1226L483 1213Q413 1325 372 1350H359Q136 1350 136 607Q136 331 334 99L421 87H446Q483 231 483 334Q483 417 458 557H347L223 545L211 570Q254 632 347 632H495Q557 616
557 297Q557 0 396 0H384Q180 0 74 483Q62 550 62 619Q62 1265 260 1399L347 1424Z" />
<glyph unicode="h" glyph-name="h" horiz-adv-x="564" d="M419 1417Q491 1344 447 79Q458 78 456 56L433 46Q354 51 380 457L386 547L378 604Q163 607 162 584Q155 478 184 51L125 9Q58 337 124 1402L147 1412L170 1411Q192 1406 191 1386Q177 996 163 777L160
732L168 675L190 673Q292 667 384 683L388 751Q403 978 383 1374Q403 1418 419 1417Z" />
<glyph unicode="i" glyph-name="i" horiz-adv-x="319" d="M118 1389Q194 1386 185 1109Q164 466 200 25L161 1H149Q76 4 104 1339Q92 1363 93 1377L118 1389Z" />
<glyph unicode="j" glyph-name="j" horiz-adv-x="430" d="M284 1371Q356 1364 328 1050Q367 391 349 183Q290 -7 222 -1L126 8Q29 16 41 149L42 161L54 160Q143 67 228 59L280 238Q261 839 259 1361L284 1371Z" />
<glyph unicode="k" glyph-name="k" horiz-adv-x="541" d="M445 1407L468 1405L467 1393Q460 1328 157 666Q154 632 431 41L427 6Q425 -17 402 -15Q313 77 149 479L138 481L126 37Q86 18 66 20Q43 23 83 1071Q69 1073 63 1330Q82 1399 105 1396Q146 1392 155 865L166
864Q371 1359 445 1407Z" />
<glyph unicode="l" glyph-name="l" horiz-adv-x="475" d="M126 1404Q160 1402 157 1356Q116 694 157 74Q351 96 421 92L431 68Q426 -12 95 9Q50 561 90 1189L102 1383Q107 1405 126 1404Z" />
<glyph unicode="m" glyph-name="m" horiz-adv-x="693" d="M430 1468Q498 1328 623 11L600 0H577Q548 0 509 523L418 1218H407Q373 751 327 751H316Q286 751 179 1127H168Q111 180 111 46H77Q54 119 54 148V182L100 1127V1411H122Q166 1402 304 945H316Q363 1468
430 1468Z" />
<glyph unicode="n" glyph-name="n" horiz-adv-x="593" d="M135 1387Q158 1359 383 406Q402 406 418 300H430V324Q395 810 395 1139V1281Q395 1371 442 1387Q463 1387 477 737L536 40L513 28H465Q350 155 158 1021H147V855Q147 342 206 5L182 -7H147Q78 -7 52 1304V1352Q52
1379 135 1387Z" />
<glyph unicode="o" glyph-name="o" horiz-adv-x="608" d="M254 1402Q436 1402 487 1087Q522 819 522 561V432Q522 0 370 0H347Q166 0 102 280Q90 357 90 432V526Q90 1402 230 1402H254ZM242 1355Q187 1355 148 467Q192 58 347 58Q452 58 452 421V666Q452 1242
277 1344Q265 1344 242 1355Z" />
<glyph unicode="p" glyph-name="p" horiz-adv-x="571" d="M94 1409Q473 1335 473 1030Q484 1015 484 947Q484 673 165 426V237Q165 160 177 0H117Q94 0 94 24V118Q94 502 106 1006L70 1397L94 1409ZM153 1314V1302Q177 1055 177 900V781Q177 699 165 521Q402 682
402 888V995Q370 1314 153 1314Z" />
<glyph unicode="q" glyph-name="q" horiz-adv-x="719" d="M291 1386H314Q528 1386 563 876Q574 777 574 763Q563 409 529 197Q571 116 687 -7Q676 -27 676 -52H653Q642 -52 506 95Q416 5 370 5Q76 113 76 888Q118 1386 291 1386ZM133 865Q133 436 280 152Q376
61 393 61L450 174Q431 174 359 322Q370 322 370 333Q382 333 484 265L518 741Q518 1269 302 1329Q179 1329 144 944Q144 880 133 865Z" />
<glyph unicode="r" glyph-name="r" horiz-adv-x="512" d="M296 1392Q441 1382 470 1154Q462 1041 252 775L251 764Q406 571 391 360Q399 356 434 19L376 -11Q359 31 311 501Q281 636 168 714L146 715L145 704L141 17L118 7L96 9Q73 11 75 33Q89 869 57 1364Q74
1388 296 1392ZM121 1315Q145 856 139 772Q391 988 401 1137L405 1182Q401 1328 269 1338Q242 1340 121 1315Z" />
<glyph unicode="s" glyph-name="s" horiz-adv-x="556" d="M240 1417Q320 1417 406 1303V1290Q263 1341 228 1341Q113 1261 113 1086Q113 943 418 603Q466 603 507 336V311Q470 -7 279 -7H253Q113 -7 113 184H126Q215 57 266 57Q410 57 431 311V324Q431 532 101
870Q37 1023 37 1099Q92 1417 240 1417Z" />
<glyph unicode="t" glyph-name="t" horiz-adv-x="623" d="M583 1392V1368Q582 1349 533 1322L332 1329L331 1317Q321 1018 344 9L320 -2L297 -1Q247 1 248 1308L46 1316Q22 1316 23 1340L24 1364Q25 1388 60 1386Q483 1395 583 1392Z" />
<glyph unicode="u" glyph-name="u" horiz-adv-x="534" d="M424 1417H436Q488 1241 440 237Q452 236 449 187Q437 -11 277 -2L252 0Q54 12 78 408Q83 1115 92 1263L98 1375Q104 1399 125 1398L149 1397L173 1383L157 1309Q126 94 208 89L269 73L306 71Q352 92 372
142Q378 238 384 1370Q405 1418 424 1417Z" />
<glyph unicode="v" glyph-name="v" horiz-adv-x="549" d="M518 1394Q530 1371 530 1358Q435 721 352 12L328 0H304Q266 0 185 477Q30 1270 30 1370H54Q109 1370 304 238H316Q316 479 471 1370L518 1394Z" />
<glyph unicode="w" glyph-name="w" horiz-adv-x="719" d="M52 1406L64 1405Q82 1402 127 1057Q177 894 225 336H238Q326 731 328 760L352 758Q407 755 508 330L520 329Q524 574 533 697L541 819Q579 1370 628 1367Q645 1366 662 1328Q610 750 602 631Q596 536
608 175Q590 53 563 55L551 56Q501 63 373 523L361 524Q301 302 253 27L215 5L203 6L55 1086Q19 1102 24 1359L26 1383Q31 1408 52 1406Z" />
<glyph unicode="x" glyph-name="x" horiz-adv-x="612" d="M479 1391L512 1388L533 1376Q380 930 344 742Q513 290 569 55L546 46L525 48Q478 118 313 612L302 613Q142 66 116 11L83 14L62 26L255 726L29 1390L52 1400L63 1399Q108 1396 287 866Q321 864 457 1381L479
1391Z" />
<glyph unicode="y" glyph-name="y" horiz-adv-x="578" d="M538 1461L551 1436Q398 1062 398 661Q398 512 373 330Q386 220 386 140V0H348Q297 0 297 216Q322 706 322 813V851Q322 906 55 1296L30 1347L55 1359Q132 1359 335 1016H348Q419 1374 538 1461Z" />
<glyph unicode="z" glyph-name="z" horiz-adv-x="608" d="M501 1417Q552 1398 552 1378Q333 661 140 90H153Q265 90 475 116L488 90V64Q488 9 76 0Q50 0 50 39Q50 76 359 992Q449 1302 449 1327H192L102 1314L89 1340V1365Q89 1417 501 1417Z" />
<glyph unicode="{" glyph-name="braceleft" horiz-adv-x="541" d="M178 1355Q298 1322 470 1174Q450 1119 429 1119H401Q212 1225 150 1341L178 1355ZM81 826Q342 813 401 799V757Q401 729 373 729H262Q67 729 67 813Q81 813 81 826ZM429 465V451Q406 349 206
131Q186 131 164 173V201Q354 465 429 465Z" />
<glyph unicode="|" glyph-name="bar" horiz-adv-x="1014" />
<glyph unicode="}" glyph-name="braceright" horiz-adv-x="534" d="M396 1319Q332 1203 138 1097H110Q88 1097 67 1152Q244 1300 367 1333L396 1319ZM467 781T481 781Q481 697 281 697H167Q138 697 138 725V767Q199 781 467 794Q467 781 481 781ZM187 443T381
179V151Q359 109 339 109Q133 327 110 429V443Q187 443 381 179Z" />
<glyph unicode="~" glyph-name="asciitilde" horiz-adv-x="1108" d="M1014 559L1029 528V482Q1029 420 597 420Q501 420 88 435Q57 486 57 513Q72 513 72 528L258 513H643Q835 513 1014 559Z" />
</font>
</defs>
</svg>
